<svg height="30" xmlns="http://www.w3.org/2000/svg" viewBox="0 0 29.59 23.89">
  <defs>
    <style>
      .cls-1 {
        fill: #c4c4c4;
      }
    </style>
  </defs>
  <g id="Слой_2" data-name="Слой 2">
    <g id="OBJECTS">
      <path class="cls-1"
        d="M14.8,20.82A16.83,16.83,0,0,1,.29,12.45L0,12l.29-.51a16.75,16.75,0,0,1,29,0l.29.51-.29.5A16.82,16.82,0,0,1,14.8,20.82ZM2.32,12a14.76,14.76,0,0,0,25,0A14.75,14.75,0,0,0,2.32,12Z" />
      <path class="cls-1"
        d="M14.8,20.82A8.88,8.88,0,1,1,23.67,12,8.88,8.88,0,0,1,14.8,20.82Zm0-15.75A6.88,6.88,0,1,0,21.67,12,6.88,6.88,0,0,0,14.8,5.07Z" />
      <rect class="cls-1" x="-1.1" y="10.94" width="31.79" height="2" transform="translate(-4.11 13.96) rotate(-45)" />
    </g>
  </g>
</svg>