<svg height="16" xmlns="http://www.w3.org/2000/svg" viewBox="0 0 149.01 14.42">
  <defs>
    <style>
      .cls-1 {
        isolation: isolate;
      }

      .cls-2 {
        mix-blend-mode: screen;
      }

      .cls-3 {
        fill: #f58225;
      }
    </style>
  </defs>
  <g class="cls-1">
    <g id="Слой_2" data-name="Слой 2">
      <g id="Designed_By_Freepik" data-name="Designed By Freepik">
        <g id="Freepik_Sign" data-name="Freepik Sign" class="cls-2">
          <path class="cls-3"
            d="M4.81,11.09v-.16a4,4,0,0,1-.64.61,2.49,2.49,0,0,1-.69.35,2.37,2.37,0,0,1-.81.13,2.45,2.45,0,0,1-1.08-.25,2.48,2.48,0,0,1-.85-.7A3.07,3.07,0,0,1,.19,10,4.41,4.41,0,0,1,0,8.66,3.49,3.49,0,0,1,.74,6.29a2.47,2.47,0,0,1,2-.85,2.64,2.64,0,0,1,1.18.24,3.25,3.25,0,0,1,.93.74V4A1.23,1.23,0,0,1,5,3.27.68.68,0,0,1,5.58,3a.7.7,0,0,1,.57.23,1.07,1.07,0,0,1,.2.69v7.15a1,1,0,0,1-.22.69.69.69,0,0,1-.55.24A.72.72,0,0,1,5,11.78,1,1,0,0,1,4.81,11.09ZM1.63,8.71a2.7,2.7,0,0,0,.2,1.12,1.59,1.59,0,0,0,.56.7,1.46,1.46,0,0,0,1.56,0,1.53,1.53,0,0,0,.56-.68,2.62,2.62,0,0,0,.22-1.15A2.53,2.53,0,0,0,4.51,7.6a1.73,1.73,0,0,0-.57-.72,1.36,1.36,0,0,0-.78-.24,1.33,1.33,0,0,0-.8.25,1.67,1.67,0,0,0-.54.72A2.88,2.88,0,0,0,1.63,8.71Z" />
          <path class="cls-3"
            d="M12,9.12H8.79a2.13,2.13,0,0,0,.22,1,1.58,1.58,0,0,0,.58.64,1.53,1.53,0,0,0,.79.21,1.74,1.74,0,0,0,.53-.07,1.51,1.51,0,0,0,.47-.21,3.38,3.38,0,0,0,.41-.31l.5-.45a.52.52,0,0,1,.35-.11.62.62,0,0,1,.41.14.49.49,0,0,1,.15.38,1.12,1.12,0,0,1-.17.52,2.23,2.23,0,0,1-.52.56,3,3,0,0,1-.87.45,3.76,3.76,0,0,1-1.21.18A3.26,3.26,0,0,1,8,11.13a3.32,3.32,0,0,1-.87-2.42,4.08,4.08,0,0,1,.22-1.33A3,3,0,0,1,8,6.32a2.75,2.75,0,0,1,1-.67,3.54,3.54,0,0,1,1.33-.23,3.13,3.13,0,0,1,1.63.4,2.65,2.65,0,0,1,1,1,2.79,2.79,0,0,1,.34,1.29.82.82,0,0,1-.35.8A2.24,2.24,0,0,1,12,9.12ZM8.79,8.2h2.94A2,2,0,0,0,11.28,7a1.33,1.33,0,0,0-1-.42,1.3,1.3,0,0,0-1,.42A2.11,2.11,0,0,0,8.79,8.2Z" />
          <path class="cls-3"
            d="M19.34,9.9A1.94,1.94,0,0,1,19,11a2,2,0,0,1-1,.73A4.38,4.38,0,0,1,16.5,12,3.71,3.71,0,0,1,15,11.75a2.1,2.1,0,0,1-.92-.67,1.33,1.33,0,0,1-.3-.8A.62.62,0,0,1,14,9.82a.65.65,0,0,1,.48-.19.57.57,0,0,1,.39.12,1.45,1.45,0,0,1,.26.35,1.58,1.58,0,0,0,1.55.87,1.37,1.37,0,0,0,.79-.22.62.62,0,0,0,.32-.5.67.67,0,0,0-.33-.62,3.69,3.69,0,0,0-1.06-.37A9.28,9.28,0,0,1,15,8.82a2.21,2.21,0,0,1-.84-.6,1.38,1.38,0,0,1-.31-.92,1.64,1.64,0,0,1,.29-.92,2,2,0,0,1,.86-.7,3.32,3.32,0,0,1,1.37-.25,4.39,4.39,0,0,1,1.13.13,2.53,2.53,0,0,1,.83.35,1.58,1.58,0,0,1,.51.48,1,1,0,0,1,.18.53.58.58,0,0,1-.19.45.72.72,0,0,1-.53.18.66.66,0,0,1-.42-.14,2.89,2.89,0,0,1-.4-.43,1.59,1.59,0,0,0-.44-.38,1.39,1.39,0,0,0-.67-.14,1.26,1.26,0,0,0-.73.19.53.53,0,0,0-.29.46.51.51,0,0,0,.21.42,1.65,1.65,0,0,0,.58.27c.24.07.57.16,1,.26a5.1,5.1,0,0,1,1.23.44,2.12,2.12,0,0,1,.73.6A1.4,1.4,0,0,1,19.34,9.9Z" />
          <path class="cls-3"
            d="M21,4.67a.89.89,0,0,1-.58-.2.75.75,0,0,1-.24-.59.72.72,0,0,1,.25-.57A.8.8,0,0,1,21,3.09a.82.82,0,0,1,.56.2.72.72,0,0,1,.24.59.73.73,0,0,1-.24.58A.79.79,0,0,1,21,4.67Zm.8,1.68V11a1.09,1.09,0,0,1-.23.74A.78.78,0,0,1,21,12a.74.74,0,0,1-.58-.26,1.12,1.12,0,0,1-.22-.73V6.39a1.07,1.07,0,0,1,.22-.72A.75.75,0,0,1,21,5.43a.78.78,0,0,1,.59.24A1,1,0,0,1,21.8,6.35Z" />
          <path class="cls-3"
            d="M28.9,6.61v4.71a5.13,5.13,0,0,1-.17,1.39,2.27,2.27,0,0,1-.55,1,2.5,2.5,0,0,1-1,.57,5.53,5.53,0,0,1-1.53.18,4.61,4.61,0,0,1-1.49-.23,2.64,2.64,0,0,1-1-.61,1.13,1.13,0,0,1-.35-.76.63.63,0,0,1,.2-.49.71.71,0,0,1,.49-.18.8.8,0,0,1,.62.31l.27.32a1.18,1.18,0,0,0,.31.28,1.22,1.22,0,0,0,.4.18,3,3,0,0,0,.55,0,2.33,2.33,0,0,0,1-.17,1,1,0,0,0,.48-.49,1.94,1.94,0,0,0,.17-.68c0-.24,0-.62,0-1.15a2.57,2.57,0,0,1-.86.79,2.3,2.3,0,0,1-1.17.28,2.45,2.45,0,0,1-1.42-.42,2.56,2.56,0,0,1-.93-1.16,4.27,4.27,0,0,1-.33-1.73,4.16,4.16,0,0,1,.2-1.32,2.81,2.81,0,0,1,.56-1,2.52,2.52,0,0,1,.85-.61,2.82,2.82,0,0,1,1.06-.2,2.58,2.58,0,0,1,1.19.26,2.89,2.89,0,0,1,.94.83V6.31a.92.92,0,0,1,.21-.65.67.67,0,0,1,.53-.23.64.64,0,0,1,.63.3A2.08,2.08,0,0,1,28.9,6.61ZM24.21,8.67a2.24,2.24,0,0,0,.43,1.49,1.39,1.39,0,0,0,1.11.5,1.48,1.48,0,0,0,.76-.21,1.66,1.66,0,0,0,.59-.66,2.28,2.28,0,0,0,.22-1.06,2.43,2.43,0,0,0-.43-1.54,1.41,1.41,0,0,0-1.15-.55,1.33,1.33,0,0,0-1.12.53A2.35,2.35,0,0,0,24.21,8.67Z" />
          <path class="cls-3"
            d="M31.48,6.32v.2a2.77,2.77,0,0,1,.93-.83,2.58,2.58,0,0,1,1.17-.26,2.24,2.24,0,0,1,1.14.28,1.74,1.74,0,0,1,.76.78,2.36,2.36,0,0,1,.21.65,7.13,7.13,0,0,1,0,.88v3a1.09,1.09,0,0,1-.22.74.8.8,0,0,1-1.17,0,1.06,1.06,0,0,1-.22-.73V8.33A2.88,2.88,0,0,0,33.9,7.1.92.92,0,0,0,33,6.68a1.34,1.34,0,0,0-.79.26,1.45,1.45,0,0,0-.52.71A5,5,0,0,0,31.58,9v2a1.06,1.06,0,0,1-.23.74.78.78,0,0,1-.59.25.74.74,0,0,1-.58-.26A1.06,1.06,0,0,1,30,11V6.35a1,1,0,0,1,.2-.7.69.69,0,0,1,.55-.22.76.76,0,0,1,.39.1.79.79,0,0,1,.27.3A1,1,0,0,1,31.48,6.32Z" />
          <path class="cls-3"
            d="M41.34,9.12H38.17a2,2,0,0,0,.22,1,1.49,1.49,0,0,0,.57.64,1.57,1.57,0,0,0,.8.21,1.79,1.79,0,0,0,.53-.07,1.46,1.46,0,0,0,.46-.21,4.56,4.56,0,0,0,.42-.31l.49-.45A.55.55,0,0,1,42,9.79a.57.57,0,0,1,.4.14.46.46,0,0,1,.16.38,1,1,0,0,1-.18.52,1.91,1.91,0,0,1-.52.56,3,3,0,0,1-.87.45A3.71,3.71,0,0,1,39.8,12a3.22,3.22,0,0,1-2.42-.89,3.32,3.32,0,0,1-.87-2.42,4.08,4.08,0,0,1,.21-1.33,3,3,0,0,1,.63-1.06,2.75,2.75,0,0,1,1-.67,3.54,3.54,0,0,1,1.33-.23,3.09,3.09,0,0,1,1.62.4,2.53,2.53,0,0,1,1,1,2.68,2.68,0,0,1,.34,1.29c0,.41-.11.68-.35.8A2.17,2.17,0,0,1,41.34,9.12ZM38.17,8.2H41.1A1.9,1.9,0,0,0,40.66,7a1.33,1.33,0,0,0-1-.42,1.29,1.29,0,0,0-1,.42A2,2,0,0,0,38.17,8.2Z" />
          <path class="cls-3"
            d="M47.94,11.09v-.16a4.47,4.47,0,0,1-.64.61,2.49,2.49,0,0,1-.69.35,2.37,2.37,0,0,1-.81.13,2.45,2.45,0,0,1-1.08-.25,2.61,2.61,0,0,1-.86-.7A3.22,3.22,0,0,1,43.32,10a4.41,4.41,0,0,1-.19-1.33,3.49,3.49,0,0,1,.74-2.37,2.45,2.45,0,0,1,2-.85A2.61,2.61,0,0,1,47,5.68a3.29,3.29,0,0,1,.94.74V4a1.23,1.23,0,0,1,.2-.76A.67.67,0,0,1,48.71,3a.68.68,0,0,1,.56.23,1,1,0,0,1,.2.69v7.15a1,1,0,0,1-.21.69.75.75,0,0,1-1.1,0A1,1,0,0,1,47.94,11.09ZM44.75,8.71A2.7,2.7,0,0,0,45,9.83a1.59,1.59,0,0,0,.56.7,1.46,1.46,0,0,0,1.56,0,1.6,1.6,0,0,0,.56-.68,2.78,2.78,0,0,0,.21-1.15,2.68,2.68,0,0,0-.21-1.11,1.73,1.73,0,0,0-.57-.72,1.38,1.38,0,0,0-.78-.24,1.31,1.31,0,0,0-.8.25,1.67,1.67,0,0,0-.54.72A2.88,2.88,0,0,0,44.75,8.71Z" />
          <path class="cls-3"
            d="M54.57,3.94V6.42a3.59,3.59,0,0,1,.93-.73,2.44,2.44,0,0,1,1.17-.25,2.67,2.67,0,0,1,1.42.38A2.57,2.57,0,0,1,59,6.93a4,4,0,0,1,.34,1.73A4.45,4.45,0,0,1,59.18,10a3,3,0,0,1-.54,1.06,2.45,2.45,0,0,1-.87.7,2.55,2.55,0,0,1-1.11.25,2.71,2.71,0,0,1-.71-.09,2.06,2.06,0,0,1-.56-.24,2,2,0,0,1-.39-.3,4.14,4.14,0,0,1-.43-.46v.16a1,1,0,0,1-.22.69.74.74,0,0,1-.56.24.69.69,0,0,1-.55-.24,1,1,0,0,1-.21-.69V4a1.21,1.21,0,0,1,.2-.74A.68.68,0,0,1,53.79,3a.69.69,0,0,1,.57.24A1,1,0,0,1,54.57,3.94Zm.07,4.82a2.18,2.18,0,0,0,.45,1.48,1.43,1.43,0,0,0,1.16.52,1.32,1.32,0,0,0,1-.53,2.33,2.33,0,0,0,.44-1.52,3.07,3.07,0,0,0-.18-1.11A1.75,1.75,0,0,0,57,6.89a1.28,1.28,0,0,0-.79-.25,1.4,1.4,0,0,0-.83.25,1.7,1.7,0,0,0-.57.73A2.83,2.83,0,0,0,54.64,8.76Z" />
          <path class="cls-3"
            d="M61.47,12.22l.15-.36-2-5a1.86,1.86,0,0,1-.18-.63.67.67,0,0,1,.11-.38.74.74,0,0,1,.29-.29.76.76,0,0,1,.39-.1.64.64,0,0,1,.53.22,2,2,0,0,1,.31.64l1.37,4,1.3-3.71c.11-.3.2-.54.28-.71a.63.63,0,0,1,.66-.43.73.73,0,0,1,.35.09.78.78,0,0,1,.27.27.73.73,0,0,1,.09.35c0,.07,0,.18-.08.32s-.08.28-.13.42l-2.11,5.53a6.64,6.64,0,0,1-.54,1.15,1.7,1.7,0,0,1-.69.64,2.52,2.52,0,0,1-1.16.22,2.93,2.93,0,0,1-1.07-.15.57.57,0,0,1-.35-.57.56.56,0,0,1,.16-.43.76.76,0,0,1,.51-.15.73.73,0,0,1,.25,0l.27,0a1.08,1.08,0,0,0,.44-.08.89.89,0,0,0,.29-.29A5.77,5.77,0,0,0,61.47,12.22Z" />
          <path class="cls-3"
            d="M85,5.57h.38V5.08a3.29,3.29,0,0,1,.19-1.21,1.2,1.2,0,0,1,.66-.65A3.11,3.11,0,0,1,87.44,3c1,0,1.42.23,1.42.7a.52.52,0,0,1-.15.38.46.46,0,0,1-.35.16l-.33,0a3.22,3.22,0,0,0-.39,0c-.29,0-.48.09-.56.26a1.78,1.78,0,0,0-.13.74v.39h.4c.62,0,.92.18.92.56s-.07.43-.24.5a1.75,1.75,0,0,1-.68.11H87V11a1,1,0,0,1-.23.73.74.74,0,0,1-.59.25.72.72,0,0,1-.57-.25,1.06,1.06,0,0,1-.23-.73V6.74h-.44a.83.83,0,0,1-.56-.17.52.52,0,0,1-.2-.42c0-.39.27-.58.82-.58" />
          <path class="cls-3"
            d="M90.25,9.68V11a1.06,1.06,0,0,1-.23.74.79.79,0,0,1-.59.24.73.73,0,0,1-.58-.25,1.1,1.1,0,0,1-.22-.73V6.52c0-.73.26-1.1.79-1.1a.66.66,0,0,1,.58.26,1.46,1.46,0,0,1,.2.75,2.84,2.84,0,0,1,.59-.75,1.26,1.26,0,0,1,.82-.26,2.09,2.09,0,0,1,1,.26.77.77,0,0,1,.48.68.64.64,0,0,1-.2.48.61.61,0,0,1-.44.2A2.17,2.17,0,0,1,92,6.93a2.07,2.07,0,0,0-.6-.11.85.85,0,0,0-.58.19,1.16,1.16,0,0,0-.35.55,4,4,0,0,0-.17.88c0,.34,0,.75,0,1.24" />
          <path class="cls-3"
            d="M97.7,9.12H94.53a2.31,2.31,0,0,0,.22,1,1.64,1.64,0,0,0,.58.64,1.53,1.53,0,0,0,.79.21,1.74,1.74,0,0,0,.53-.07,1.79,1.79,0,0,0,.47-.21,3.32,3.32,0,0,0,.42-.32L98,9.9a.48.48,0,0,1,.35-.11.57.57,0,0,1,.41.14.48.48,0,0,1,.15.38,1,1,0,0,1-.16.51,2,2,0,0,1-.53.57,3,3,0,0,1-.87.45,4,4,0,0,1-1.21.17,3.25,3.25,0,0,1-2.43-.88,3.34,3.34,0,0,1-.87-2.42,4.14,4.14,0,0,1,.22-1.34,2.9,2.9,0,0,1,.62-1,2.71,2.71,0,0,1,1-.67,3.54,3.54,0,0,1,1.33-.24,3.13,3.13,0,0,1,1.63.41,2.59,2.59,0,0,1,1,1A2.66,2.66,0,0,1,99,8.15a.83.83,0,0,1-.35.79,2.22,2.22,0,0,1-1,.18M94.53,8.2h2.94A2,2,0,0,0,97,7a1.36,1.36,0,0,0-1-.41A1.3,1.3,0,0,0,95,7a2.11,2.11,0,0,0-.47,1.24" />
          <path class="cls-3"
            d="M104.44,9.12h-3.17a2.17,2.17,0,0,0,.23,1,1.46,1.46,0,0,0,1.37.85,1.68,1.68,0,0,0,.52-.07,1.65,1.65,0,0,0,.47-.21,3.32,3.32,0,0,0,.42-.32l.49-.44a.49.49,0,0,1,.36-.11.54.54,0,0,1,.4.14.48.48,0,0,1,.15.38,1,1,0,0,1-.17.51,1.82,1.82,0,0,1-.52.57,3,3,0,0,1-.87.45,4,4,0,0,1-1.21.17,3.25,3.25,0,0,1-2.43-.88,3.34,3.34,0,0,1-.87-2.42,4.14,4.14,0,0,1,.22-1.34,2.9,2.9,0,0,1,.62-1,2.71,2.71,0,0,1,1-.67,3.58,3.58,0,0,1,1.33-.24,3.19,3.19,0,0,1,1.64.41,2.56,2.56,0,0,1,1,1,2.77,2.77,0,0,1,.34,1.3.83.83,0,0,1-.35.79,2.22,2.22,0,0,1-1,.18m-3.17-.92h2.94A2,2,0,0,0,103.77,7a1.39,1.39,0,0,0-1-.41,1.3,1.3,0,0,0-1,.42,2.17,2.17,0,0,0-.47,1.24" />
          <path class="cls-3"
            d="M108,6.34v.19a3.28,3.28,0,0,1,1-.83,2.25,2.25,0,0,1,1.11-.27A2.58,2.58,0,0,1,112.43,7a3.87,3.87,0,0,1,.37,1.76,4.24,4.24,0,0,1-.21,1.37,3.11,3.11,0,0,1-.58,1.05,2.79,2.79,0,0,1-.87.66,2.61,2.61,0,0,1-1.08.22,2.25,2.25,0,0,1-1.17-.28,3.33,3.33,0,0,1-.9-.81v2.43c0,.71-.26,1.07-.77,1.07a.63.63,0,0,1-.61-.27,1.77,1.77,0,0,1-.15-.81v-7a1.05,1.05,0,0,1,.2-.69.78.78,0,0,1,1.12,0,1,1,0,0,1,.21.68m3.18,2.35a2.78,2.78,0,0,0-.19-1.1,1.74,1.74,0,0,0-.55-.71,1.32,1.32,0,0,0-.77-.24,1.45,1.45,0,0,0-1.13.52,2.36,2.36,0,0,0-.46,1.56,2.21,2.21,0,0,0,.46,1.5,1.43,1.43,0,0,0,1.13.54,1.35,1.35,0,0,0,.75-.23,1.55,1.55,0,0,0,.55-.71,2.75,2.75,0,0,0,.21-1.13" />
          <path class="cls-3"
            d="M114.43,4.67a.84.84,0,0,1-.58-.21.73.73,0,0,1-.24-.59.7.7,0,0,1,.25-.56.81.81,0,0,1,.57-.23.87.87,0,0,1,.56.2.75.75,0,0,1,.24.59.78.78,0,0,1-.23.59.84.84,0,0,1-.57.21m.8,1.67V11a1,1,0,0,1-.23.73.75.75,0,0,1-.59.25.72.72,0,0,1-.57-.25,1.06,1.06,0,0,1-.23-.73V6.39a1,1,0,0,1,.23-.72.72.72,0,0,1,.57-.25.75.75,0,0,1,.59.25.91.91,0,0,1,.23.67" />
          <path class="cls-3"
            d="M120.46,11.27,119,8.92l-.88.83V11a1,1,0,0,1-.25.72.75.75,0,0,1-.56.25.72.72,0,0,1-.59-.25,1.1,1.1,0,0,1-.22-.73V4.12a1.47,1.47,0,0,1,.21-.83.7.7,0,0,1,.6-.28.74.74,0,0,1,.59.26,1.1,1.1,0,0,1,.22.75V8L120,6a4.87,4.87,0,0,1,.52-.49.75.75,0,0,1,.43-.13.71.71,0,0,1,.51.2.64.64,0,0,1,.2.48c0,.24-.22.56-.66,1l-.86.79,1.66,2.61c.12.2.22.34.27.44a.71.71,0,0,1,.08.29.85.85,0,0,1-.21.61.73.73,0,0,1-.56.22.63.63,0,0,1-.46-.16,3.89,3.89,0,0,1-.43-.58" />
          <path class="cls-3"
            d="M124,12a.91.91,0,0,1-.63-.23.85.85,0,0,1-.27-.67.85.85,0,0,1,.26-.62.82.82,0,0,1,.63-.26.91.91,0,0,1,.64.25.89.89,0,0,1,.26.63.85.85,0,0,1-.26.66A.87.87,0,0,1,124,12" />
          <path class="cls-3"
            d="M132,10a1.35,1.35,0,0,1-.18.64,2.08,2.08,0,0,1-.55.66,2.71,2.71,0,0,1-.94.5,3.85,3.85,0,0,1-1.27.19,3.1,3.1,0,0,1-2.34-.87,3.27,3.27,0,0,1-.85-2.35A3.87,3.87,0,0,1,126.3,7a2.87,2.87,0,0,1,1.11-1.18,3.49,3.49,0,0,1,1.75-.42,3.32,3.32,0,0,1,1.16.19,3.12,3.12,0,0,1,.89.47,2.23,2.23,0,0,1,.55.62,1.25,1.25,0,0,1,.2.62.64.64,0,0,1-.22.49.75.75,0,0,1-.52.2.53.53,0,0,1-.34-.1,1.52,1.52,0,0,1-.3-.34,2.44,2.44,0,0,0-.62-.68,1.41,1.41,0,0,0-.82-.22,1.38,1.38,0,0,0-1.16.56,2.44,2.44,0,0,0-.44,1.53,3.24,3.24,0,0,0,.11.85,2.09,2.09,0,0,0,.33.65,1.4,1.4,0,0,0,.52.41,1.59,1.59,0,0,0,.66.14,1.51,1.51,0,0,0,.84-.23,1.89,1.89,0,0,0,.61-.69,1.65,1.65,0,0,1,.32-.42.58.58,0,0,1,.42-.16.61.61,0,0,1,.49.23.68.68,0,0,1,.2.48" />
          <path class="cls-3"
            d="M139,8.72a3.89,3.89,0,0,1-.23,1.34,3,3,0,0,1-.65,1,3.07,3.07,0,0,1-1,.67,3.59,3.59,0,0,1-1.34.24,3.45,3.45,0,0,1-1.32-.24,2.95,2.95,0,0,1-1.68-1.73,4,4,0,0,1-.22-1.33,3.9,3.9,0,0,1,.23-1.35,2.83,2.83,0,0,1,.65-1,2.88,2.88,0,0,1,1-.67,3.52,3.52,0,0,1,1.32-.24,3.59,3.59,0,0,1,1.34.24,2.89,2.89,0,0,1,1.68,1.72A4.09,4.09,0,0,1,139,8.72m-1.63,0A2.43,2.43,0,0,0,137,7.18a1.41,1.41,0,0,0-1.17-.56,1.43,1.43,0,0,0-1.39,1,3,3,0,0,0-.2,1.12,2.93,2.93,0,0,0,.19,1.11,1.61,1.61,0,0,0,.56.73,1.49,1.49,0,0,0,.84.25,1.41,1.41,0,0,0,1.17-.56,2.42,2.42,0,0,0,.44-1.53" />
          <path class="cls-3"
            d="M145.22,8.84V11a1.12,1.12,0,0,1-.23.77.8.8,0,0,1-.61.26.76.76,0,0,1-.6-.26,1.12,1.12,0,0,1-.23-.77V8.41a7.87,7.87,0,0,0,0-1,1,1,0,0,0-.23-.55.69.69,0,0,0-.58-.22,1,1,0,0,0-1,.55,4,4,0,0,0-.25,1.56V11a1.22,1.22,0,0,1-.22.77.8.8,0,0,1-.61.26.76.76,0,0,1-.6-.26,1.11,1.11,0,0,1-.24-.77V6.36a1,1,0,0,1,.21-.7.73.73,0,0,1,.56-.24.77.77,0,0,1,.56.23.84.84,0,0,1,.22.61v.15a2.74,2.74,0,0,1,.9-.73,2.25,2.25,0,0,1,1.07-.25,2.15,2.15,0,0,1,1.05.25,1.94,1.94,0,0,1,.72.73,2.84,2.84,0,0,1,.89-.73,2.21,2.21,0,0,1,1-.25,2.33,2.33,0,0,1,1.15.27,1.66,1.66,0,0,1,.72.74,3.68,3.68,0,0,1,.2,1.39V11a1.08,1.08,0,0,1-.23.77.79.79,0,0,1-.61.26.79.79,0,0,1-.6-.26,1.11,1.11,0,0,1-.24-.77V8.27a6.35,6.35,0,0,0,0-.84,1,1,0,0,0-.24-.53.77.77,0,0,0-.59-.21,1,1,0,0,0-.61.19,1.31,1.31,0,0,0-.45.51,4,4,0,0,0-.18,1.45" />
          <path class="cls-3"
            d="M76.05,2.12a4,4,0,0,1,.81.07l.08-.48a5.24,5.24,0,0,0-1.7-.15l-.07-.26a.65.65,0,0,0,.52-.64.66.66,0,1,0-1.32,0,.65.65,0,0,0,.52.64l.09.29a6.64,6.64,0,0,0-1.84.54l.15.44a7.92,7.92,0,0,1,1.64-.38A10.7,10.7,0,0,1,76.05,2.12Z" />
          <path class="cls-3"
            d="M70.38,4.53h0l.07-.09-.2-.14L70,4.07a4.65,4.65,0,0,0-.88,1.28l0-.07a.62.62,0,0,0-.48-.19h0A.37.37,0,0,1,68.28,5a.45.45,0,0,0,.09-.26.42.42,0,1,0-.42.42h.1a.69.69,0,0,0,.51.21.37.37,0,0,1,.27.09.5.5,0,0,1,.1.27h0a4.68,4.68,0,0,0-.2,1.67l.66,0A5.2,5.2,0,0,1,69.63,6,6.94,6.94,0,0,1,70.38,4.53Z" />
          <path class="cls-3"
            d="M81.8,2.67a.42.42,0,0,0-.42.42.36.36,0,0,0,0,.1.61.61,0,0,0-.21.51.33.33,0,0,1-.1.27.44.44,0,0,1-.18.09A5.25,5.25,0,0,0,79.81,3l-.48.51A6.81,6.81,0,0,1,80.41,4.7,9.28,9.28,0,0,1,81.13,6l.63-.3a9.24,9.24,0,0,0-.7-1.37,1.13,1.13,0,0,0,.21-.12.65.65,0,0,0,.18-.48.39.39,0,0,1,.09-.27.48.48,0,0,0,.26.09.42.42,0,1,0,0-.84Z" />
          <path class="cls-3"
            d="M80.14,8.42A14,14,0,0,1,75.9,9.68a14.74,14.74,0,0,1-2.14.15,18.89,18.89,0,0,1-2.23-.14c-.67-.09-1.19-.19-1.52-.26a5.42,5.42,0,0,0,.29.72v0a.56.56,0,0,1,0,.08l0,.08v0a4.78,4.78,0,0,0,.67,1,3.55,3.55,0,0,0,1.83,1.14h0a7.44,7.44,0,0,0,2,.26A8.92,8.92,0,0,0,78.53,12a5.68,5.68,0,0,0,2-1.67,4.52,4.52,0,0,0,.66-1.43,3.8,3.8,0,0,0,.09-1.14A9.91,9.91,0,0,1,80.14,8.42Z" />
          <path class="cls-3"
            d="M70.67,4.74A6.18,6.18,0,0,0,70,6.15a5.15,5.15,0,0,0-.22,1.53h0a4.44,4.44,0,0,0,0,.63h0s0,.05,0,.08,0,.29.07.44a16.8,16.8,0,0,0,6,.31A13.8,13.8,0,0,0,79.89,8a9,9,0,0,0,1.33-.78A9,9,0,0,0,80.13,4.9a5.15,5.15,0,0,0-3.3-2.36,4.81,4.81,0,0,0-.78-.07A10.36,10.36,0,0,0,75,2.54a7.66,7.66,0,0,0-1.58.37,6.31,6.31,0,0,0-2.2,1.28l0,0A4,4,0,0,0,70.67,4.74Zm7.67-.42a1.09,1.09,0,1,1-1.09,1.09A1.09,1.09,0,0,1,78.34,4.32Zm-5.15,0A1.76,1.76,0,1,1,71.43,6,1.76,1.76,0,0,1,73.19,4.28Z" />
        </g>
      </g>
    </g>
  </g>
</svg>